<?xml version="1.0" encoding="UTF-8"?>
<svg width="117px" height="32px" viewBox="0 0 117 32" version="1.1" xmlns="http://www.w3.org/2000/svg" xmlns:xlink="http://www.w3.org/1999/xlink">
    <!-- Generator: Sketch 48.1 (47250) - http://www.bohemiancoding.com/sketch -->
    <title>logo</title>
    <desc>Created with Sketch.</desc>
    <defs></defs>
    <g id="Desktop-HD-Copy-13" stroke="none" stroke-width="1" fill="none" fill-rule="evenodd" transform="translate(-140.000000, -174.000000)">
        <path d="M188.339844,197.234375 C187.121088,197.234375 186.083989,196.953128 185.228516,196.390625 C184.373043,195.828122 183.732424,195.083989 183.306641,194.158203 C182.880857,193.232417 182.667969,192.23438 182.667969,191.164062 C182.667969,190.101557 182.880857,189.10352 183.306641,188.169922 C183.732424,187.236323 184.369136,186.482425 185.216797,185.908203 C186.064457,185.333982 187.09765,185.046875 188.316406,185.046875 C189.503912,185.046875 190.535152,185.337888 191.410156,185.919922 C192.285161,186.501956 192.941404,187.363276 193.378906,188.503906 L190.660156,189.558594 C190.503905,188.980466 190.216799,188.515627 189.798828,188.164062 C189.380857,187.812498 188.886722,187.636719 188.316406,187.636719 C187.691403,187.636719 187.17383,187.802733 186.763672,188.134766 C186.353514,188.466799 186.052735,188.900388 185.861328,189.435547 C185.669921,189.970706 185.574219,190.546872 185.574219,191.164062 C185.574219,191.796878 185.667968,192.374997 185.855469,192.898438 C186.04297,193.421878 186.341795,193.843748 186.751953,194.164062 C187.162111,194.484377 187.683591,194.644531 188.316406,194.644531 C188.878909,194.644531 189.371092,194.474611 189.792969,194.134766 C190.214846,193.79492 190.503905,193.343753 190.660156,192.78125 L193.261719,193.765625 C192.871092,194.85938 192.242192,195.710934 191.375,196.320312 C190.507808,196.929691 189.4961,197.234375 188.339844,197.234375 Z M198.617188,197.234375 C197.812496,197.234375 197.087894,197.083986 196.443359,196.783203 C195.798825,196.48242 195.291017,196.042972 194.919922,195.464844 C194.548826,194.886716 194.363281,194.199223 194.363281,193.402344 C194.363281,192.207025 194.783199,191.343753 195.623047,190.8125 C196.462895,190.281247 197.597649,190.015625 199.027344,190.015625 L202.074219,190.015625 C202.074219,189.257809 201.875002,188.656252 201.476562,188.210938 C201.078123,187.765623 200.507816,187.542969 199.765625,187.542969 C199.140622,187.542969 198.595705,187.697264 198.130859,188.005859 C197.666013,188.314455 197.29297,188.710935 197.011719,189.195312 L194.820312,187.613281 C195.421878,186.792965 196.119137,186.160158 196.912109,185.714844 C197.705082,185.269529 198.648432,185.046875 199.742188,185.046875 C200.789068,185.046875 201.693356,185.249998 202.455078,185.65625 C203.216801,186.062502 203.798826,186.632809 204.201172,187.367188 C204.603518,188.101566 204.804688,188.945308 204.804688,189.898438 L204.804688,197 L202.449219,197 L202.261719,195.324219 C201.785154,196.019535 201.246097,196.511717 200.644531,196.800781 C200.042966,197.089845 199.367191,197.234375 198.617188,197.234375 Z M199.027344,194.820312 C199.558596,194.820312 200.054685,194.693361 200.515625,194.439453 C200.976565,194.185546 201.347655,193.849611 201.628906,193.431641 C201.910158,193.01367 202.058594,192.562502 202.074219,192.078125 L199.191406,192.078125 C198.574216,192.078125 198.103517,192.214842 197.779297,192.488281 C197.455077,192.76172 197.292969,193.097654 197.292969,193.496094 C197.292969,193.894533 197.445311,194.214843 197.75,194.457031 C198.054689,194.69922 198.480466,194.820312 199.027344,194.820312 Z M211.378906,197.234375 C210.582027,197.234375 209.845707,197.087892 209.169922,196.794922 C208.494137,196.501952 207.92383,196.107424 207.458984,195.611328 C206.994138,195.115232 206.664063,194.562503 206.46875,193.953125 L208.742188,192.945312 C208.945314,193.49219 209.238279,193.949217 209.621094,194.316406 C210.003908,194.683596 210.542965,194.867188 211.238281,194.867188 C211.652346,194.867188 212.001952,194.796876 212.287109,194.65625 C212.572267,194.515624 212.785156,194.337892 212.925781,194.123047 C213.066407,193.908202 213.136719,193.691407 213.136719,193.472656 C213.136719,193.222655 213.044923,193.015626 212.861328,192.851562 C212.677733,192.687499 212.44922,192.556641 212.175781,192.458984 C211.902342,192.361328 211.507815,192.246094 210.992188,192.113281 C210.218746,191.910155 209.583987,191.703126 209.087891,191.492188 C208.591794,191.281249 208.162111,190.951174 207.798828,190.501953 C207.435545,190.052732 207.253906,189.449223 207.253906,188.691406 C207.253906,187.90234 207.453123,187.234378 207.851562,186.6875 C208.250002,186.140622 208.779294,185.73047 209.439453,185.457031 C210.099613,185.183592 210.820309,185.046875 211.601562,185.046875 C212.593755,185.046875 213.468746,185.269529 214.226562,185.714844 C214.984379,186.160158 215.589841,186.785152 216.042969,187.589844 L213.828125,188.796875 C213.585936,188.359373 213.283205,188.001955 212.919922,187.724609 C212.556639,187.447264 212.08594,187.308594 211.507812,187.308594 C211.054685,187.308594 210.689455,187.406249 210.412109,187.601562 C210.134764,187.796876 209.996094,188.035155 209.996094,188.316406 C209.996094,188.535157 210.08203,188.718749 210.253906,188.867188 C210.425782,189.015626 210.642577,189.136718 210.904297,189.230469 C211.166017,189.324219 211.535154,189.441406 212.011719,189.582031 C212.81641,189.808595 213.480466,190.041014 214.003906,190.279297 C214.527346,190.517579 214.98242,190.88281 215.369141,191.375 C215.755861,191.86719 215.949219,192.519527 215.949219,193.332031 C215.949219,194.191411 215.730471,194.91406 215.292969,195.5 C214.855467,196.08594 214.289066,196.521483 213.59375,196.806641 C212.898434,197.091798 212.16016,197.234375 211.378906,197.234375 Z M218.527344,180.441406 L221.433594,180.441406 L221.433594,186.652344 C221.878908,186.105466 222.400388,185.701173 222.998047,185.439453 C223.595706,185.177733 224.203122,185.046875 224.820312,185.046875 C225.79688,185.046875 226.609372,185.277341 227.257812,185.738281 C227.906253,186.199221 228.382811,186.802731 228.6875,187.548828 C228.992189,188.294926 229.144531,189.101558 229.144531,189.96875 L229.144531,197 L226.238281,197 L226.238281,190.332031 C226.238281,189.503902 226.085939,188.847659 225.78125,188.363281 C225.476561,187.878904 224.925785,187.636719 224.128906,187.636719 C223.246089,187.636719 222.576174,187.953122 222.119141,188.585938 C221.662107,189.218753 221.433594,190.04687 221.433594,191.070312 L221.433594,197 L218.527344,197 L218.527344,180.441406 Z M234.582031,197.234375 C233.824215,197.234375 233.226565,197.044924 232.789062,196.666016 C232.35156,196.287107 232.132812,195.621099 232.132812,194.667969 L232.132812,180.441406 L234.992188,180.441406 L234.992188,193.882812 C234.992188,194.406253 235.304684,194.667969 235.929688,194.667969 C236.148439,194.667969 236.410155,194.644531 236.714844,194.597656 L236.714844,197 C235.917965,197.156251 235.207034,197.234375 234.582031,197.234375 Z M241.296875,197.234375 C240.539059,197.234375 239.941408,197.044924 239.503906,196.666016 C239.066404,196.287107 238.847656,195.621099 238.847656,194.667969 L238.847656,180.441406 L241.707031,180.441406 L241.707031,193.882812 C241.707031,194.406253 242.019528,194.667969 242.644531,194.667969 C242.863282,194.667969 243.124998,194.644531 243.429688,194.597656 L243.429688,197 C242.632809,197.156251 241.921878,197.234375 241.296875,197.234375 Z M248.445312,196.683594 L243.863281,185.292969 L247.003906,185.292969 L249.957031,193.425781 L252.957031,185.292969 L256.097656,185.292969 L249.40625,202.039062 L246.289062,202.039062 L248.445312,196.683594 Z M158.709257,174.221991 C165.340464,175.310194 170.689255,180.659073 171.77744,187.290388 C173.572821,198.244633 164.242318,207.572799 153.290743,205.777388 C146.659536,204.691675 141.310745,199.342797 140.22256,192.708992 C138.427179,181.759727 147.757682,172.429071 158.709257,174.221991 Z M162.439466,189.001133 C162.033576,186.341634 159.859696,184.165228 157.200241,183.754351 C152.912243,183.089476 149.266699,186.740061 149.941523,191.028129 C150.362354,193.692608 152.551175,195.861543 155.22059,196.254989 C159.488667,196.887492 163.09188,193.264299 162.439466,189.001133 Z M156.057273,202.801639 C162.422036,202.801639 167.698613,198.157477 168.687193,192.069019 C168.719565,191.864825 168.555217,191.678062 168.351026,191.678062 L166.568096,191.678062 C165.910702,191.678062 165.323033,192.101391 165.131293,192.733893 C163.958443,196.633495 160.33531,199.477266 156.057273,199.477266 C150.205476,199.477266 145.598743,194.17072 146.769102,188.112143 C147.503689,184.304678 150.636268,181.281615 154.458612,180.654093 C159.401512,179.847279 163.794095,182.875322 165.123823,187.238095 C165.320543,187.885538 165.920663,188.326298 166.597977,188.326298 L168.42822,188.326298 C168.595059,188.326298 168.724545,188.174397 168.699644,188.012536 C167.753396,181.941509 162.544052,177.284897 156.229092,177.202721 C149.348873,177.110585 143.462214,182.740853 143.260514,189.618694 C143.048853,196.86259 148.858318,202.801639 156.057273,202.801639 Z" id="logo" fill="#FFFFFF"></path>
    </g>
</svg>